<svg width="97" height="83" viewBox="0 0 97 83" fill="none" xmlns="http://www.w3.org/2000/svg">
<rect width="97" height="83" fill="#F5F5F5"/>
<rect width="97" height="83" fill="#4A52AB" fill-opacity="0.98"/>
<path d="M53.714 59.844L52.61 60.258L41.156 27.276L31.358 55.566L27.77 59.844L26.666 60.258L11.21 15.684C10.796 14.672 10.313 13.913 9.761 13.407C9.255 12.901 8.45 12.648 7.346 12.648H5V10.578H22.112V12.648H20.456C18.432 12.648 17.42 13.246 17.42 14.442C17.42 14.81 17.604 15.5 17.972 16.512L29.978 51.426L39.776 23.136L37.154 15.684C36.602 14.212 36.119 13.338 35.705 13.062C35.291 12.786 34.716 12.648 33.98 12.648H33.428V10.578H48.884V12.648H46.4C44.284 12.648 43.226 13.2 43.226 14.304C43.226 14.856 43.41 15.592 43.778 16.512L55.922 51.426L67.79 17.34C68.342 15.5 68.618 14.35 68.618 13.89C68.618 13.384 68.296 13.062 67.652 12.924C67.054 12.74 65.812 12.648 63.926 12.648H62.96V10.578H76.484V12.648H75.242C73.77 12.648 72.804 12.855 72.344 13.269C71.884 13.683 71.424 14.58 70.964 15.96L57.302 55.566L53.714 59.844Z" fill="white"/>
<path d="M54.714 68.8L55.68 59.83L58.026 59.968C58.026 62.498 59.521 64.545 62.511 66.109C65.547 67.627 68.974 68.386 72.792 68.386C76.656 68.386 79.554 67.811 81.486 66.661C83.418 65.465 84.384 63.97 84.384 62.176C84.384 59.14 82.774 56.426 79.554 54.034C78.22 53.068 76.817 52.217 75.345 51.481C71.987 49.733 69.871 48.629 68.997 48.169C68.169 47.663 67.226 47.157 66.168 46.651C65.11 46.145 64.121 45.616 63.201 45.064C62.327 44.466 61.384 43.753 60.372 42.925C58.072 41.085 56.922 39.038 56.922 36.784C56.922 34.484 57.313 32.483 58.095 30.781C58.923 29.079 59.935 27.745 61.131 26.779C62.373 25.813 63.822 25.008 65.478 24.364C68.284 23.352 71.412 22.846 74.862 22.846C78.358 22.846 81.716 23.72 84.936 25.468L84.108 33.472H81.762C81.762 29.148 78.128 26.986 70.86 26.986C67.502 26.986 64.972 27.515 63.27 28.573C61.614 29.631 60.786 31.08 60.786 32.92C60.786 35.864 65.57 39.406 75.138 43.546C81.44 46.26 85.465 49.273 87.213 52.585C88.087 54.241 88.524 56.058 88.524 58.036C88.524 62.82 86.592 66.523 82.728 69.145C78.91 71.767 74.287 73.078 68.859 73.078C63.431 73.078 58.716 71.652 54.714 68.8Z" fill="white"/>
</svg>
